<svg id="Layer_1" data-name="Layer 1" xmlns="http://www.w3.org/2000/svg" viewBox="0 0 87 47"><defs><style>.cls-1{fill:#fff;}</style></defs><title>bike</title><path class="cls-1" d="M70.09,12.21a16.9,16.9,0,0,0-5.45.87L60.7,2.13l10-.72A2.75,2.75,0,1,1,71,6.91l-2.49.28a.5.5,0,0,0,.05,1h.06l2.47-.28A3.75,3.75,0,1,0,70.67.42l-10.48.75a.5.5,0,0,0-.46.53.5.5,0,0,0,0,.15.49.49,0,0,0-.07.45l1.42,3.95L33,12.8,30.39,5,36.5,1.83A.44.44,0,0,0,36.28,1L25,1.3a.44.44,0,0,0-.23.8l4.61,3.12,2.68,8-3.29,3.46A17,17,0,1,0,34,33l5.28,1h.09a.49.49,0,0,0,.19,0l0,0,.12-.09,0,0L61.57,7.5l2.12,5.91a17,17,0,1,0,6.4-1.2ZM60.3,7.47l-20.7,25-6.28-18.7Zm-28,24.13L18.45,29l9.7-10.18A14.74,14.74,0,0,1,32.26,31.6ZM17.33,44.29A15,15,0,1,1,27.42,18.11L17.09,28.94l0,0-.05.09a.48.48,0,0,0,0,.09l0,0a.47.47,0,0,0,0,0,.47.47,0,0,0,0,.19l0,.09.06.08,0,0,0,0,.08,0,.1,0,0,0,14.72,2.8A15,15,0,0,1,17.33,44.29Zm12.2-27,2.92-3.06,6.23,18.54L34.22,32a16.7,16.7,0,0,0-4.69-14.63ZM69.83,44.21A15,15,0,0,1,64.37,15.3L70,30.88a.5.5,0,1,0,.94-.34L65.31,15a15,15,0,1,1,4.52,29.25Z"/></svg>